<svg xmlns="http://www.w3.org/2000/svg" viewBox="0 0 960 600" role="img" aria-label="英雄机器人示意图">
  <defs>
    <linearGradient id="bg" x1="0" y1="0" x2="1" y2="1">
      <stop offset="0" stop-color="#071017"/>
      <stop offset="1" stop-color="#251114"/>
    </linearGradient>
    <linearGradient id="hot" x1="0" y1="0" x2="1" y2="0">
      <stop offset="0" stop-color="#37d7ff"/>
      <stop offset="1" stop-color="#ff526b"/>
    </linearGradient>
  </defs>
  <rect width="960" height="600" fill="url(#bg)"/>
  <g opacity=".18" stroke="#fff"><path d="M0 120H960M0 240H960M0 360H960M0 480H960"/><path d="M160 0V600M320 0V600M480 0V600M640 0V600M800 0V600"/></g>
  <path d="M235 410L315 210H555L650 410Z" fill="#0b1219" stroke="#37d7ff" stroke-width="12"/>
  <path d="M440 210V120H555V210" fill="none" stroke="#ffb238" stroke-width="12"/>
  <path d="M545 158L760 96" stroke="#ff526b" stroke-width="16" stroke-linecap="round"/>
  <circle cx="330" cy="430" r="55" fill="#090d12" stroke="#ffb238" stroke-width="14"/>
  <circle cx="575" cy="430" r="55" fill="#090d12" stroke="#ffb238" stroke-width="14"/>
  <path d="M690 320H850" stroke="url(#hot)" stroke-width="14" stroke-linecap="round"/>
  <text x="70" y="100" fill="#eef7f9" font-family="Arial, sans-serif" font-size="58" font-weight="800">HERO</text>
</svg>
